<svg xmlns="http://www.w3.org/2000/svg" width="20.15" height="20.15" viewBox="0 0 20.15 20.15">
  <path id="Sun_1" data-name="Sun 1" d="M10.968.893a.643.643,0,0,0-1.286,0ZM9.682,2.608a.643.643,0,0,0,1.286,0Zm1.286,15.434a.643.643,0,0,0-1.286,0ZM9.682,19.757a.643.643,0,0,0,1.286,0Zm10.075-8.789a.643.643,0,0,0,0-1.286ZM18.042,9.682a.643.643,0,0,0,0,1.286ZM2.608,10.968a.643.643,0,0,0,0-1.286ZM.893,9.682a.643.643,0,0,0,0,1.286ZM17.449,4.11a.643.643,0,0,0-.909-.909Zm-2.122.3a.643.643,0,1,0,.909.909Zm-10,11.823a.643.643,0,1,0-.909-.909Zm-2.122.3a.643.643,0,0,0,.909.909Zm13.338.909a.643.643,0,0,0,.909-.909Zm-.3-2.122a.643.643,0,0,0-.909.909Zm-11.823-10a.643.643,0,1,0,.909-.909ZM4.11,3.2A.643.643,0,1,0,3.2,4.11Zm10.716,7.124a4.5,4.5,0,0,1-4.5,4.5v1.286a5.788,5.788,0,0,0,5.788-5.788Zm-4.5,4.5a4.5,4.5,0,0,1-4.5-4.5H4.537a5.788,5.788,0,0,0,5.788,5.788Zm-4.5-4.5a4.5,4.5,0,0,1,4.5-4.5V4.537a5.788,5.788,0,0,0-5.788,5.788Zm4.5-4.5a4.5,4.5,0,0,1,4.5,4.5h1.286a5.788,5.788,0,0,0-5.788-5.788ZM9.682.893V2.608h1.286V.893Zm0,17.149v1.715h1.286V18.042Zm10.075-8.36H18.042v1.286h1.715Zm-17.149,0H.893v1.286H2.608ZM16.539,3.2,15.327,4.413l.909.909L17.449,4.11ZM4.413,15.327,3.2,16.539l.909.909,1.213-1.213Zm13.035,1.213-1.213-1.213-.909.909,1.213,1.213ZM5.323,4.413,4.11,3.2,3.2,4.11,4.413,5.323Z" transform="translate(-0.25 -0.25)" fill="#2d264b"/>
</svg>
